<svg xmlns="http://www.w3.org/2000/svg" viewBox="0 0 32 32">
  <defs>
    <linearGradient id="g" x1="0" y1="0" x2="1" y2="1">
      <stop offset="0" stop-color="#2E9BF5"/><stop offset="1" stop-color="#1F6FD0"/>
    </linearGradient>
  </defs>
  <rect width="32" height="32" rx="6.5" fill="url(#g)"/>
  <g transform="translate(5.44 5.44) scale(0.66)">
    <path d="M3 16c4-7 12-10 18-10 4 0 7 2 8 5l-4 5 4 5c-1 3-4 5-8 5-6 0-14-3-18-10z" fill="#ffffff"/>
    <path d="M30 6l-6 10 6 10c-3 0-6-3-7-10 1-7 4-10 7-10z" fill="#ffffff" opacity="0.55"/>
    <circle cx="10.5" cy="14" r="1.8" fill="#2E9BF5"/>
  </g>
</svg>
